<svg width="117" height="117" viewBox="0 0 117 117" fill="none" xmlns="http://www.w3.org/2000/svg">
<path d="M107.896 64.6791L85.9584 51.6994C85.3734 51.3703 84.7519 51.1875 84.0938 51.1875C83.4356 51.1875 82.8141 51.3703 82.2291 51.6994L60.2916 64.6791C59.1947 65.3372 58.5 66.5437 58.5 67.8234V93.0516C58.5 94.3313 59.1947 95.5378 60.2916 96.1959L82.2291 109.176C82.8141 109.505 83.4356 109.688 84.0938 109.688C84.7519 109.688 85.3734 109.505 85.9584 109.176L107.896 96.1959C108.993 95.5378 109.688 94.3313 109.688 93.0516V67.8234C109.688 66.5437 108.993 65.3372 107.896 64.6791ZM102.375 90.9675L84.0938 101.79L65.8125 90.9675V69.9075L84.0938 59.085L102.375 69.9075V90.9675Z" fill="url(#paint0_linear_59_110)"/>
<path d="M85.5564 16.3434C83.1799 16.3434 80.8764 16.6725 78.6827 17.3306C76.781 14.8719 74.3436 12.8793 71.5558 11.5044C68.7681 10.1296 65.7035 9.40866 62.5952 9.39656C58.3174 9.39656 54.2589 10.7128 50.822 13.1625C46.7442 9.4113 41.4088 7.32411 35.868 7.3125H35.8314C29.9083 7.3125 24.3508 9.61594 20.1461 13.8206C17.3747 16.5753 15.3936 20.0235 14.4096 23.8051C13.4256 27.5868 13.4748 31.5632 14.5521 35.3194C12.2915 37.1718 10.4722 39.5046 9.22622 42.1482C7.98029 44.7919 7.33909 47.68 7.34924 50.6025C7.34924 61.4616 16.0877 70.3097 26.8736 70.3097H27.8974C29.6784 73.5979 32.3129 76.3453 35.5236 78.2627C38.7343 80.1801 42.4024 81.1966 46.1421 81.2053C47.8605 81.2053 49.5789 80.9859 51.1877 80.5838V72.8691C49.6155 73.5272 47.897 73.8928 46.1421 73.8928C40.548 73.8928 35.4658 70.3463 33.5646 65.1178L32.4677 62.1563L29.3964 62.7778C28.5555 62.9606 27.7146 63.0338 26.8736 63.0338C20.1461 63.0338 14.6617 57.4397 14.6617 50.6025C14.6617 46.215 17.0017 42.0834 20.8042 39.8531L23.6196 38.2078L22.3033 35.2097C21.4624 33.345 21.0602 31.3706 21.0602 29.3231C21.0602 25.4109 22.5592 21.7547 25.338 18.9759C28.1533 16.1606 31.8827 14.625 35.8314 14.625C40.4017 14.625 44.8258 16.8188 47.6046 20.4384L49.7983 23.3269L54.1858 19.8169C56.5624 17.8059 59.5239 16.7091 62.5952 16.7091C67.3117 16.7091 71.6992 19.3416 74.0758 23.5463L75.7211 26.4713L78.7558 25.0819C80.8764 24.1313 83.1799 23.6559 85.5564 23.6559C94.8433 23.6559 102.375 31.2975 102.375 40.6575C102.368 44.4097 101.107 48.0519 98.7921 51.0047L105.19 54.6975C108.104 50.5969 109.664 45.688 109.651 40.6575C109.651 27.2391 98.8286 16.3434 85.5199 16.3434H85.5564Z" fill="url(#paint1_linear_59_110)"/>
<path d="M78.3252 85.4062C77.5377 86.0625 76.7176 86.3625 75.8648 86.3062C75.0121 86.25 74.2666 85.9594 73.6283 85.4344C72.9901 84.9094 72.5543 84.2205 72.3211 83.3678C72.0878 82.515 72.2423 81.6383 72.7846 80.7375L74.8939 77.25C74.4252 76.8375 74.0551 76.3406 73.7836 75.7594C73.5121 75.1781 73.3759 74.55 73.3752 73.875C73.3752 72.6375 73.8158 71.5781 74.6971 70.6969C75.5783 69.8156 76.6377 69.375 77.8752 69.375C79.1127 69.375 80.1721 69.8156 81.0533 70.6969C81.9346 71.5781 82.3752 72.6375 82.3752 73.875C82.3752 75.1125 81.9346 76.1719 81.0533 77.0531C80.1721 77.9344 79.1127 78.375 77.8752 78.375C77.7064 78.375 77.5377 78.3656 77.3689 78.3469C77.2002 78.3281 77.0408 78.3 76.8908 78.2625L74.7252 81.9187C74.5189 82.2562 74.4533 82.5893 74.5283 82.9178C74.6033 83.2463 74.7627 83.5133 75.0064 83.7188C75.2502 83.9242 75.5408 84.0416 75.8783 84.0709C76.2158 84.1001 76.5439 83.9827 76.8627 83.7188L88.6752 73.5656C89.4627 72.9094 90.2877 72.6139 91.1502 72.6791C92.0127 72.7444 92.7627 73.0399 93.4002 73.5656C94.0377 74.0914 94.4689 74.7806 94.6939 75.6334C94.9189 76.4861 94.7596 77.3625 94.2158 78.2625L92.1064 81.75C92.5752 82.1625 92.9457 82.6594 93.2179 83.2406C93.4902 83.8219 93.6259 84.45 93.6252 85.125C93.6252 86.3625 93.1846 87.4219 92.3033 88.3031C91.4221 89.1844 90.3627 89.625 89.1252 89.625C87.8877 89.625 86.8283 89.1844 85.9471 88.3031C85.0658 87.4219 84.6252 86.3625 84.6252 85.125C84.6252 83.8875 85.0658 82.8281 85.9471 81.9469C86.8283 81.0656 87.8877 80.625 89.1252 80.625C89.2939 80.625 89.4582 80.6344 89.6179 80.6531C89.7777 80.6719 89.9322 80.7 90.0814 80.7375L92.2752 77.0813C92.4814 76.7438 92.5471 76.4107 92.4721 76.0822C92.3971 75.7537 92.2377 75.4868 91.9939 75.2812C91.7502 75.0757 91.4596 74.9588 91.1221 74.9303C90.7846 74.9018 90.4564 75.0188 90.1377 75.2812L78.3252 85.4062Z" fill="url(#paint2_linear_59_110)"/>
<defs>
<linearGradient id="paint0_linear_59_110" x1="84.0938" y1="51.1875" x2="84.0938" y2="109.688" gradientUnits="userSpaceOnUse">
<stop stop-color="#FE8200"/>
<stop offset="1" stop-color="#FE4D00"/>
</linearGradient>
<linearGradient id="paint1_linear_59_110" x1="58.5002" y1="7.3125" x2="58.5002" y2="81.2053" gradientUnits="userSpaceOnUse">
<stop stop-color="#FE8200"/>
<stop offset="1" stop-color="#FE4D00"/>
</linearGradient>
<linearGradient id="paint2_linear_59_110" x1="83.5043" y1="69.375" x2="83.5043" y2="89.625" gradientUnits="userSpaceOnUse">
<stop stop-color="#FE8200"/>
<stop offset="1" stop-color="#FE4D00"/>
</linearGradient>
</defs>
</svg>
