<svg width="116" height="116" viewBox="0 0 116 116" fill="none" xmlns="http://www.w3.org/2000/svg">
<path d="M104.4 104.4V11.6H11.6001V104.4H104.4ZM92.8001 29H23.2001V23.2H92.8001V29ZM40.6001 40.6V58H58.0001C58.0001 67.628 50.2281 75.4 40.6001 75.4C30.9721 75.4 23.2001 67.628 23.2001 58C23.2001 48.372 30.9721 40.6 40.6001 40.6ZM46.4001 52.2V40.6C52.7801 40.6 58.0001 45.82 58.0001 52.2H46.4001ZM92.8001 46.4H69.6001V40.6H92.8001V46.4ZM92.8001 63.8H69.6001V52.2H92.8001V63.8ZM92.8001 75.4H69.6001V69.6H92.8001V75.4ZM92.8001 92.8H23.2001V87H92.8001V92.8Z" fill="url(#paint0_linear_59_99)"/>
<defs>
<linearGradient id="paint0_linear_59_99" x1="58.0001" y1="11.6" x2="58.0001" y2="104.4" gradientUnits="userSpaceOnUse">
<stop stop-color="#FE8200"/>
<stop offset="1" stop-color="#FE4D00"/>
</linearGradient>
</defs>
</svg>
