<svg width="328" height="328" viewBox="0 0 328 328" fill="none" xmlns="http://www.w3.org/2000/svg">
<path d="M254.841 83.5016C254.702 84.8854 254.62 86.4639 254.584 88.1756L234.935 97.5595C232.183 97.1085 218.535 97.9029 198.179 87.8579C193.018 85.3107 187.975 83.9577 183.132 83.9577C178.749 83.9619 174.429 85.0071 170.529 87.0071C165.389 85.895 157.983 83.0455 153.653 83.0557C143.854 83.107 121.575 91.0866 115.405 91.7682C109.368 92.4294 103.151 94.0899 96.8932 96.7344C85.5209 93.4236 71.2631 88.0167 63.6269 85.0289L10.25 46.125V171.226L49.4768 189.891C50.0456 189.225 50.6965 188.2 51.4037 186.929L52.6184 187.493C53.2129 189.031 53.8689 190.561 54.5864 192.085C50.2814 199.332 49.7689 207.496 53.2077 214.594C56.1546 220.667 61.6435 224.931 67.7576 226.125C68.0907 229.908 69.3617 233.567 71.504 236.739C75.3477 242.413 81.4567 245.8 87.8579 245.8C88.4387 245.8 89.0161 245.769 89.5901 245.708C90.5024 248.173 91.84 250.469 93.5774 252.457C97.4416 256.901 102.854 259.448 108.419 259.448C108.829 259.448 109.234 259.434 109.634 259.407C110.341 262.093 111.546 264.635 113.227 266.9C117.096 272.127 123.067 275.238 129.206 275.238C133.019 275.238 136.663 274.07 139.877 271.881C146.088 275.868 151.49 278.672 156.282 280.394C158.685 281.373 161.186 281.875 163.739 281.875C169.776 281.875 175.634 279.056 179.816 274.126C181.369 272.291 182.629 270.241 183.552 268.048C185.359 268.593 187.235 268.873 189.123 268.878C195.539 268.878 201.623 265.736 205.83 260.242C207.831 257.64 209.278 254.656 210.084 251.474C210.525 251.504 210.962 251.52 211.396 251.52C218.812 251.52 225.91 247.169 229.902 240.163C231.994 236.518 233.105 232.393 233.126 228.191C240.455 227.099 246.907 221.887 250.049 214.286C253.144 206.799 252.304 198.537 247.983 191.649L267.945 180.4C268.458 182.153 268.96 183.767 269.447 185.079L317.75 159.377V54.5403L254.841 83.5016ZM254.835 99.0662C255.153 104.611 255.732 110.879 256.481 117.424C252.381 110.536 247.204 107.394 240.778 105.831L254.835 99.0662ZM228.042 220.816C217.033 217.028 194.12 190.091 194.12 190.091H194.571C196.903 189.927 201.94 187.472 207.593 188.646C198.717 181.02 188.954 187.472 182.306 183.521C183.849 188.467 191.265 190.025 193.166 190.086L215.122 215.619C225.064 227.176 218.141 241.475 208.172 243.75C201.484 240.496 182.599 218.033 182.599 218.033C183.244 217.915 187.073 216.716 190.973 217.228C181.968 210.494 171.759 216.337 165.702 212.108C169.135 220.59 180.446 218.417 181.63 218.212L193.376 233.208C202.776 245.201 195.391 259.053 185.407 260.929C176.556 257.818 170.811 246.748 170.811 246.748C171.703 246.605 174.686 245.277 178.929 245.892C171.38 239.276 162.591 245.277 157.307 241.51C160.571 248.624 168.71 247.005 169.166 246.953C177.305 259.771 168.864 273.137 158.778 273.537H158.767L158.757 273.542C152.699 272.491 146.355 267.648 139.19 262.677C141.65 259.95 143.823 255.158 143.823 255.158C151.018 242.131 141.681 230.61 132.04 231.599C139.861 233.736 145.724 243.719 139.62 254.805L136.94 259.315C134.029 264.619 129.483 267.822 126.142 267.428C120.996 266.802 113.744 259.289 116.794 248.691C117.972 247.614 129.34 230.225 129.34 230.225C137.155 217.638 128.381 205.589 118.715 205.999C126.413 208.598 131.81 218.92 125.173 229.631L115.933 244.037C112.781 249.131 108.701 252.017 104.811 251.484C98.7741 250.664 94.5409 243.299 95.5095 235.699C95.4583 235.745 102.162 228.247 102.162 228.247C111.069 216.608 103.443 203.611 93.7926 202.93C101.209 206.384 105.626 217.269 98.0566 227.176L94.7869 231.184C91.1994 235.888 86.879 238.282 83.0968 237.339C76.4958 235.683 73.062 223.332 76.1831 219.965C78.638 217.315 85.5311 208.926 85.5311 208.926C94.4332 197.282 86.8175 184.29 77.1569 183.598C84.5779 187.062 88.9956 197.948 81.426 207.86L78.1562 211.857C74.5482 216.603 70.2125 218.986 66.4046 218.018C58.4711 216.008 54.5095 203.76 62.0996 193.817C62.0996 193.817 59.5218 185.628 58.3584 182.127L54.5351 180.354C63.4987 159.47 77.039 113.375 77.6643 98.0618C84.2653 100.414 101.69 105.426 103.54 105.437L103.53 105.447C122.288 99.5531 141.947 100.204 150.916 96.7395C153.822 95.6325 159.603 95.5607 165.732 99.0662C161.904 102.423 158.286 106.421 154.529 110.146C145.55 119.059 112.166 132.958 118.603 147.574C124.158 160.187 139.805 173.092 166.05 152.833L180.81 150.803L203.765 162.129L233.182 192.341C243.673 203.094 237.733 217.689 228.042 220.816ZM235.422 187.529C232.05 181.225 221.538 170.888 211.616 162.437L211.555 162.375C216.132 162.56 220.934 155.19 227.14 154.621C222.804 151.311 215.619 155.134 213.379 155.739C201.033 159.06 181.845 143.526 181.845 143.526L163.488 146.17C163.488 146.17 141.655 172.815 123.261 150.865C113.273 138.944 149.471 123.374 158.388 114.513C169.812 103.161 179.99 89.2724 198.783 98.7331C214.394 106.605 220.544 106.118 241.485 109.762C247.727 110.854 252.053 113.714 256.691 119.295C258.874 137.663 262.405 158.035 265.793 172.21C264.045 173.681 249.065 183.757 235.422 187.529Z" fill="url(#paint0_linear_73_27)"/>
<defs>
<linearGradient id="paint0_linear_73_27" x1="164" y1="46.125" x2="164" y2="281.875" gradientUnits="userSpaceOnUse">
<stop stop-color="#FE8200"/>
<stop offset="1" stop-color="#FE4D00"/>
</linearGradient>
</defs>
</svg>
