<svg width="221" height="74" viewBox="0 0 221 74" fill="none" xmlns="http://www.w3.org/2000/svg">
<g clip-path="url(#clip0_242_27)">
<path d="M12.4702 38.9879C7.65511 37.4908 3.16382 34.7474 2.62271 33.8007L2.58838 29.4113L3.76855 26.768L6.34105 23.0158C10.6007 21.7374 17.348 20.0328 9.85752 24.4835C2.36703 28.9342 6.43684 35.2659 12.4702 38.9879Z" fill="white"/>
<path d="M38.4463 39.5122C60.4623 41.7203 65.6631 36.3131 66.3894 36.3136L69.6688 33.693L70.8421 30.1718L68.8593 25.2649C66.8765 37.9231 53.8561 38.4242 38.4463 39.5122Z" fill="white"/>
<path d="M7.76248 25.6379C13.3369 21.8613 30.4669 19.8927 38.1407 20.1227C39.6751 20.1102 51.8588 20.8831 62.1818 23.2189C73.4166 25.7611 69.4652 33.2557 66.2872 36.3543C73.9422 32.4291 74.0882 27.2188 73.2042 25.1044C67.5158 14.2645 43.5515 12.47 32.2804 12.9277C22.8129 13.6633 2.37848 16.977 0.357781 25.6983C-0.633865 29.9782 1.52417 33.7696 4.73996 35.4992C1.49327 29.8192 5.47552 27.1873 7.76248 25.6379Z" fill="white"/>
<path d="M41.65 41.9284L38.6118 39.3551L41.8154 37.5391" stroke="white" stroke-width="2" stroke-linecap="round"/>
<path d="M34.5439 12.3574C33.0254 7.51902 30.2776 3.01661 29.3375 2.479H24.9988L22.3956 3.68861L18.7078 6.30941C17.4785 10.6103 15.8481 17.4202 20.1868 9.83998C24.5254 2.2598 30.8165 6.30941 34.5439 12.3574Z" fill="white"/>
<path d="M35.4116 21.0264C38.709 42.638 34.7936 60.3747 32.335 66.6916L29.7713 70.0154L26.3004 71.2248L22.1392 70.0154C34.6346 67.9186 36.5686 36.6168 35.4116 21.0264Z" fill="white"/>
<path d="M21.3109 7.72074C17.6231 13.3656 15.8153 30.6361 16.1046 38.364C16.1046 39.9096 16.9666 52.1762 19.3586 62.5559C21.9618 73.853 29.3375 69.8136 32.3746 66.5881C28.5565 74.3296 23.408 74.518 21.3109 73.644C10.551 67.9993 8.58416 43.8745 8.94574 32.5177C9.59654 22.9752 12.7072 2.3657 21.3109 0.261559C25.5332 -0.771037 29.298 1.37287 31.0335 4.5985C25.3932 1.37287 22.8239 5.4049 21.3109 7.72074Z" fill="white"/>
<path d="M30.5996 10.2815L34.5044 12.2975L35.806 8.87036" stroke="white" stroke-width="1.5" stroke-linecap="round"/>
</g>
<path d="M59.3301 71V45.8H71.4621C73.8141 45.8 75.8421 46.184 77.5461 46.952C79.2741 47.72 80.6061 48.824 81.5421 50.264C82.4781 51.68 82.9461 53.36 82.9461 55.304C82.9461 57.248 82.4781 58.928 81.5421 60.344C80.6061 61.76 79.2741 62.864 77.5461 63.656C75.8421 64.424 73.8141 64.808 71.4621 64.808H64.0461L67.8261 61.172V71H59.3301ZM67.8261 62.108L64.0461 58.256H70.9221C72.0981 58.256 72.9621 57.992 73.5141 57.464C74.0901 56.936 74.3781 56.216 74.3781 55.304C74.3781 54.392 74.0901 53.672 73.5141 53.144C72.9621 52.616 72.0981 52.352 70.9221 52.352H64.0461L67.8261 48.5V62.108ZM97.3207 71V67.508L96.7447 66.572V59.948C96.7447 58.988 96.4447 58.256 95.8447 57.752C95.2687 57.248 94.3207 56.996 93.0007 56.996C92.1127 56.996 91.2127 57.14 90.3007 57.428C89.3887 57.692 88.6087 58.064 87.9607 58.544L85.3687 53.18C86.5207 52.46 87.9007 51.908 89.5087 51.524C91.1167 51.14 92.6887 50.948 94.2247 50.948C97.6087 50.948 100.225 51.704 102.073 53.216C103.945 54.728 104.881 57.128 104.881 60.416V71H97.3207ZM91.7407 71.36C90.1327 71.36 88.7887 71.084 87.7087 70.532C86.6287 69.98 85.8127 69.248 85.2607 68.336C84.7087 67.4 84.4327 66.368 84.4327 65.24C84.4327 63.968 84.7567 62.888 85.4047 62C86.0527 61.112 87.0367 60.44 88.3567 59.984C89.7007 59.528 91.3927 59.3 93.4327 59.3H97.5367V63.224H94.7287C93.8647 63.224 93.2287 63.368 92.8207 63.656C92.4367 63.92 92.2447 64.328 92.2447 64.88C92.2447 65.336 92.4127 65.72 92.7487 66.032C93.1087 66.32 93.5887 66.464 94.1887 66.464C94.7407 66.464 95.2447 66.32 95.7007 66.032C96.1807 65.72 96.5287 65.24 96.7447 64.592L97.7887 67.004C97.4767 68.468 96.8167 69.56 95.8087 70.28C94.8007 71 93.4447 71.36 91.7407 71.36ZM122.177 50.948C123.689 50.948 125.057 51.26 126.281 51.884C127.505 52.484 128.465 53.432 129.161 54.728C129.881 56.024 130.241 57.704 130.241 59.768V71H122.105V61.172C122.105 59.948 121.889 59.084 121.457 58.58C121.025 58.052 120.437 57.788 119.693 57.788C119.141 57.788 118.625 57.92 118.145 58.184C117.689 58.424 117.317 58.832 117.029 59.408C116.765 59.984 116.633 60.764 116.633 61.748V71H108.497V51.308H116.237V57.068L114.689 55.412C115.457 53.924 116.489 52.808 117.785 52.064C119.105 51.32 120.569 50.948 122.177 50.948ZM144.63 71.36C142.398 71.36 140.418 70.928 138.69 70.064C136.986 69.176 135.642 67.964 134.658 66.428C133.674 64.892 133.182 63.128 133.182 61.136C133.182 59.144 133.674 57.38 134.658 55.844C135.642 54.308 136.986 53.108 138.69 52.244C140.418 51.38 142.398 50.948 144.63 50.948C146.862 50.948 148.842 51.38 150.57 52.244C152.298 53.108 153.642 54.308 154.602 55.844C155.586 57.38 156.078 59.144 156.078 61.136C156.078 63.128 155.586 64.892 154.602 66.428C153.642 67.964 152.298 69.176 150.57 70.064C148.842 70.928 146.862 71.36 144.63 71.36ZM144.63 65.024C145.23 65.024 145.77 64.88 146.25 64.592C146.73 64.304 147.114 63.872 147.402 63.296C147.69 62.696 147.834 61.976 147.834 61.136C147.834 60.272 147.69 59.564 147.402 59.012C147.114 58.436 146.73 58.004 146.25 57.716C145.77 57.428 145.23 57.284 144.63 57.284C144.03 57.284 143.49 57.428 143.01 57.716C142.53 58.004 142.146 58.436 141.858 59.012C141.57 59.564 141.426 60.272 141.426 61.136C141.426 61.976 141.57 62.696 141.858 63.296C142.146 63.872 142.53 64.304 143.01 64.592C143.49 64.88 144.03 65.024 144.63 65.024ZM158.724 71V51.308H166.464V57.248L165.204 55.556C165.804 54.02 166.764 52.868 168.084 52.1C169.404 51.332 170.988 50.948 172.836 50.948V58.148C172.476 58.1 172.152 58.064 171.864 58.04C171.6 58.016 171.324 58.004 171.036 58.004C169.812 58.004 168.804 58.328 168.012 58.976C167.244 59.6 166.86 60.692 166.86 62.252V71H158.724ZM186.068 71V67.508L185.492 66.572V59.948C185.492 58.988 185.192 58.256 184.592 57.752C184.016 57.248 183.068 56.996 181.748 56.996C180.86 56.996 179.96 57.14 179.048 57.428C178.136 57.692 177.356 58.064 176.708 58.544L174.116 53.18C175.268 52.46 176.648 51.908 178.256 51.524C179.864 51.14 181.436 50.948 182.972 50.948C186.356 50.948 188.972 51.704 190.82 53.216C192.692 54.728 193.628 57.128 193.628 60.416V71H186.068ZM180.488 71.36C178.88 71.36 177.536 71.084 176.456 70.532C175.376 69.98 174.56 69.248 174.008 68.336C173.456 67.4 173.18 66.368 173.18 65.24C173.18 63.968 173.504 62.888 174.152 62C174.8 61.112 175.784 60.44 177.104 59.984C178.448 59.528 180.14 59.3 182.18 59.3H186.284V63.224H183.476C182.612 63.224 181.976 63.368 181.568 63.656C181.184 63.92 180.992 64.328 180.992 64.88C180.992 65.336 181.16 65.72 181.496 66.032C181.856 66.32 182.336 66.464 182.936 66.464C183.488 66.464 183.992 66.32 184.448 66.032C184.928 65.72 185.276 65.24 185.492 64.592L186.536 67.004C186.224 68.468 185.564 69.56 184.556 70.28C183.548 71 182.192 71.36 180.488 71.36ZM210.925 50.948C212.437 50.948 213.805 51.26 215.029 51.884C216.253 52.484 217.213 53.432 217.909 54.728C218.629 56.024 218.989 57.704 218.989 59.768V71H210.853V61.172C210.853 59.948 210.637 59.084 210.205 58.58C209.773 58.052 209.185 57.788 208.441 57.788C207.889 57.788 207.373 57.92 206.893 58.184C206.437 58.424 206.065 58.832 205.777 59.408C205.513 59.984 205.381 60.764 205.381 61.748V71H197.245V44.288H205.381V57.068L203.437 55.412C204.205 53.924 205.237 52.808 206.533 52.064C207.853 51.32 209.317 50.948 210.925 50.948Z" fill="white"/>
<defs>
<clipPath id="clip0_242_27">
<rect width="74" height="74" fill="white"/>
</clipPath>
</defs>
</svg>
