<svg width="74" height="74" viewBox="0 0 74 74" fill="none" xmlns="http://www.w3.org/2000/svg">
<g clip-path="url(#clip0_59_164)">
<path d="M12.4702 38.9879C7.65511 37.4908 3.16382 34.7474 2.62271 33.8007L2.58838 29.4113L3.76855 26.768L6.34105 23.0158C10.6007 21.7374 17.348 20.0328 9.85752 24.4835C2.36703 28.9342 6.43684 35.2659 12.4702 38.9879Z" fill="white"/>
<path d="M38.4463 39.5122C60.4623 41.7203 65.6631 36.3131 66.3894 36.3136L69.6688 33.693L70.8421 30.1718L68.8593 25.2649C66.8765 37.9231 53.8561 38.4242 38.4463 39.5122Z" fill="white"/>
<path d="M7.76248 25.6379C13.3369 21.8613 30.4669 19.8927 38.1407 20.1227C39.6751 20.1102 51.8588 20.8831 62.1818 23.2189C73.4166 25.7611 69.4652 33.2557 66.2872 36.3543C73.9422 32.4291 74.0882 27.2188 73.2042 25.1044C67.5158 14.2645 43.5515 12.47 32.2804 12.9277C22.8129 13.6633 2.37848 16.977 0.357781 25.6983C-0.633865 29.9782 1.52417 33.7696 4.73996 35.4992C1.49327 29.8192 5.47552 27.1873 7.76248 25.6379Z" fill="white"/>
<path d="M41.65 41.9284L38.6118 39.3551L41.8154 37.5391" stroke="white" stroke-width="2" stroke-linecap="round"/>
<path d="M34.5439 12.3574C33.0254 7.51902 30.2776 3.01661 29.3375 2.479H24.9988L22.3956 3.68861L18.7078 6.30941C17.4785 10.6103 15.8481 17.4202 20.1868 9.83998C24.5254 2.2598 30.8165 6.30941 34.5439 12.3574Z" fill="white"/>
<path d="M35.4116 21.0264C38.709 42.638 34.7936 60.3747 32.335 66.6916L29.7713 70.0154L26.3004 71.2248L22.1392 70.0154C34.6346 67.9186 36.5686 36.6168 35.4116 21.0264Z" fill="white"/>
<path d="M21.3109 7.72074C17.6231 13.3656 15.8153 30.6361 16.1046 38.364C16.1046 39.9096 16.9666 52.1762 19.3586 62.5559C21.9618 73.853 29.3375 69.8136 32.3746 66.5881C28.5565 74.3296 23.408 74.518 21.3109 73.644C10.551 67.9993 8.58416 43.8745 8.94574 32.5177C9.59654 22.9752 12.7072 2.3657 21.3109 0.261559C25.5332 -0.771037 29.298 1.37287 31.0335 4.5985C25.3932 1.37287 22.8239 5.4049 21.3109 7.72074Z" fill="white"/>
<path d="M30.5996 10.2815L34.5044 12.2975L35.806 8.87036" stroke="white" stroke-width="1.5" stroke-linecap="round"/>
</g>
<defs>
<clipPath id="clip0_59_164">
<rect width="74" height="74" fill="white"/>
</clipPath>
</defs>
</svg>
