<svg width="160" height="28" viewBox="0 0 160 28" fill="none" xmlns="http://www.w3.org/2000/svg">
<path d="M0.330122 27V1.8H12.4621C14.8141 1.8 16.8421 2.184 18.5461 2.952C20.2741 3.72 21.6061 4.824 22.5421 6.264C23.4781 7.68 23.9461 9.36 23.9461 11.304C23.9461 13.248 23.4781 14.928 22.5421 16.344C21.6061 17.76 20.2741 18.864 18.5461 19.656C16.8421 20.424 14.8141 20.808 12.4621 20.808H5.04612L8.82612 17.172V27H0.330122ZM8.82612 18.108L5.04612 14.256H11.9221C13.0981 14.256 13.9621 13.992 14.5141 13.464C15.0901 12.936 15.3781 12.216 15.3781 11.304C15.3781 10.392 15.0901 9.672 14.5141 9.144C13.9621 8.616 13.0981 8.352 11.9221 8.352H5.04612L8.82612 4.5V18.108ZM38.3207 27V23.508L37.7447 22.572V15.948C37.7447 14.988 37.4447 14.256 36.8447 13.752C36.2687 13.248 35.3207 12.996 34.0007 12.996C33.1127 12.996 32.2127 13.14 31.3007 13.428C30.3887 13.692 29.6087 14.064 28.9607 14.544L26.3687 9.18C27.5207 8.46 28.9007 7.908 30.5087 7.524C32.1167 7.14 33.6887 6.948 35.2247 6.948C38.6087 6.948 41.2247 7.704 43.0727 9.216C44.9447 10.728 45.8807 13.128 45.8807 16.416V27H38.3207ZM32.7407 27.36C31.1327 27.36 29.7887 27.084 28.7087 26.532C27.6287 25.98 26.8127 25.248 26.2607 24.336C25.7087 23.4 25.4327 22.368 25.4327 21.24C25.4327 19.968 25.7567 18.888 26.4047 18C27.0527 17.112 28.0367 16.44 29.3567 15.984C30.7007 15.528 32.3927 15.3 34.4327 15.3H38.5367V19.224H35.7287C34.8647 19.224 34.2287 19.368 33.8207 19.656C33.4367 19.92 33.2447 20.328 33.2447 20.88C33.2447 21.336 33.4127 21.72 33.7487 22.032C34.1087 22.32 34.5887 22.464 35.1887 22.464C35.7407 22.464 36.2447 22.32 36.7007 22.032C37.1807 21.72 37.5287 21.24 37.7447 20.592L38.7887 23.004C38.4767 24.468 37.8167 25.56 36.8087 26.28C35.8007 27 34.4447 27.36 32.7407 27.36ZM63.1769 6.948C64.6889 6.948 66.0569 7.26 67.2809 7.884C68.5049 8.484 69.4649 9.432 70.1609 10.728C70.8809 12.024 71.2409 13.704 71.2409 15.768V27H63.1049V17.172C63.1049 15.948 62.8889 15.084 62.4569 14.58C62.0249 14.052 61.4369 13.788 60.6929 13.788C60.1409 13.788 59.6249 13.92 59.1449 14.184C58.6889 14.424 58.3169 14.832 58.0289 15.408C57.7649 15.984 57.6329 16.764 57.6329 17.748V27H49.4969V7.308H57.2369V13.068L55.6889 11.412C56.4569 9.924 57.4889 8.808 58.7849 8.064C60.1049 7.32 61.5689 6.948 63.1769 6.948ZM85.6298 27.36C83.3978 27.36 81.4178 26.928 79.6898 26.064C77.9858 25.176 76.6418 23.964 75.6578 22.428C74.6738 20.892 74.1818 19.128 74.1818 17.136C74.1818 15.144 74.6738 13.38 75.6578 11.844C76.6418 10.308 77.9858 9.108 79.6898 8.244C81.4178 7.38 83.3978 6.948 85.6298 6.948C87.8618 6.948 89.8418 7.38 91.5698 8.244C93.2978 9.108 94.6418 10.308 95.6018 11.844C96.5858 13.38 97.0778 15.144 97.0778 17.136C97.0778 19.128 96.5858 20.892 95.6018 22.428C94.6418 23.964 93.2978 25.176 91.5698 26.064C89.8418 26.928 87.8618 27.36 85.6298 27.36ZM85.6298 21.024C86.2298 21.024 86.7698 20.88 87.2498 20.592C87.7298 20.304 88.1138 19.872 88.4018 19.296C88.6898 18.696 88.8338 17.976 88.8338 17.136C88.8338 16.272 88.6898 15.564 88.4018 15.012C88.1138 14.436 87.7298 14.004 87.2498 13.716C86.7698 13.428 86.2298 13.284 85.6298 13.284C85.0298 13.284 84.4898 13.428 84.0098 13.716C83.5298 14.004 83.1458 14.436 82.8578 15.012C82.5698 15.564 82.4258 16.272 82.4258 17.136C82.4258 17.976 82.5698 18.696 82.8578 19.296C83.1458 19.872 83.5298 20.304 84.0098 20.592C84.4898 20.88 85.0298 21.024 85.6298 21.024ZM99.7242 27V7.308H107.464V13.248L106.204 11.556C106.804 10.02 107.764 8.868 109.084 8.1C110.404 7.332 111.988 6.948 113.836 6.948V14.148C113.476 14.1 113.152 14.064 112.864 14.04C112.6 14.016 112.324 14.004 112.036 14.004C110.812 14.004 109.804 14.328 109.012 14.976C108.244 15.6 107.86 16.692 107.86 18.252V27H99.7242ZM127.068 27V23.508L126.492 22.572V15.948C126.492 14.988 126.192 14.256 125.592 13.752C125.016 13.248 124.068 12.996 122.748 12.996C121.86 12.996 120.96 13.14 120.048 13.428C119.136 13.692 118.356 14.064 117.708 14.544L115.116 9.18C116.268 8.46 117.648 7.908 119.256 7.524C120.864 7.14 122.436 6.948 123.972 6.948C127.356 6.948 129.972 7.704 131.82 9.216C133.692 10.728 134.628 13.128 134.628 16.416V27H127.068ZM121.488 27.36C119.88 27.36 118.536 27.084 117.456 26.532C116.376 25.98 115.56 25.248 115.008 24.336C114.456 23.4 114.18 22.368 114.18 21.24C114.18 19.968 114.504 18.888 115.152 18C115.8 17.112 116.784 16.44 118.104 15.984C119.448 15.528 121.14 15.3 123.18 15.3H127.284V19.224H124.476C123.612 19.224 122.976 19.368 122.568 19.656C122.184 19.92 121.992 20.328 121.992 20.88C121.992 21.336 122.16 21.72 122.496 22.032C122.856 22.32 123.336 22.464 123.936 22.464C124.488 22.464 124.992 22.32 125.448 22.032C125.928 21.72 126.276 21.24 126.492 20.592L127.536 23.004C127.224 24.468 126.564 25.56 125.556 26.28C124.548 27 123.192 27.36 121.488 27.36ZM151.925 6.948C153.437 6.948 154.805 7.26 156.029 7.884C157.253 8.484 158.213 9.432 158.909 10.728C159.629 12.024 159.989 13.704 159.989 15.768V27H151.853V17.172C151.853 15.948 151.637 15.084 151.205 14.58C150.773 14.052 150.185 13.788 149.441 13.788C148.889 13.788 148.373 13.92 147.893 14.184C147.437 14.424 147.065 14.832 146.777 15.408C146.513 15.984 146.381 16.764 146.381 17.748V27H138.245V0.287998H146.381V13.068L144.437 11.412C145.205 9.924 146.237 8.808 147.533 8.064C148.853 7.32 150.317 6.948 151.925 6.948Z" fill="white"/>
</svg>
