<svg width="48" height="48" viewBox="0 0 48 48" fill="none" xmlns="http://www.w3.org/2000/svg">
<g clip-path="url(#clip0_59_204)">
<path d="M8.08901 25.2895C4.96573 24.3184 2.05246 22.5389 1.70147 21.9248L1.6792 19.0777L2.44471 17.3631L4.11336 14.9293C6.87639 14.1 11.253 12.9944 6.39432 15.8813C1.53562 18.7682 4.1755 22.8753 8.08901 25.2895Z" fill="url(#paint0_linear_59_204)"/>
<path d="M24.9385 25.6296C39.2192 27.0618 42.5926 23.5545 43.0638 23.5548L45.1909 21.855L45.952 19.5709L44.6658 16.3881C43.3797 24.5988 34.934 24.9238 24.9385 25.6296Z" fill="url(#paint1_linear_59_204)"/>
<path d="M5.03491 16.6301C8.65075 14.1804 19.7621 12.9034 24.7397 13.0527C25.735 13.0445 33.6379 13.5459 40.3339 15.061C47.6213 16.71 45.0583 21.5713 42.9969 23.5813C47.9623 21.0351 48.057 17.6555 47.4836 16.284C43.7938 9.25275 28.2494 8.0887 20.9385 8.3856C14.7973 8.86274 1.54258 11.0122 0.231863 16.6693C-0.411367 19.4454 0.988438 21.9047 3.07436 23.0266C0.968396 19.3423 3.55148 17.6351 5.03491 16.6301Z" fill="url(#paint2_linear_59_204)"/>
<path d="M27.0161 27.1968L25.0454 25.5277L27.1234 24.3497" stroke="#E34501" stroke-width="2" stroke-linecap="round"/>
<path d="M22.4068 8.01569C21.4218 4.87726 19.6395 1.95678 19.0297 1.60806H16.2154L14.5268 2.39267L12.1347 4.09265C11.3373 6.88239 10.2798 11.2996 13.0941 6.38275C15.9083 1.46588 19.989 4.09265 22.4068 8.01569Z" fill="url(#paint3_linear_59_204)"/>
<path d="M22.9695 13.6387C25.1084 27.6571 22.5686 39.162 20.9739 43.2594L19.311 45.4154L17.0596 46.1998L14.3604 45.4154C22.4655 44.0553 23.72 23.7514 22.9695 13.6387Z" fill="url(#paint4_linear_59_204)"/>
<path d="M13.8231 5.00805C11.431 8.66957 10.2584 19.872 10.446 24.8848C10.446 25.8873 11.0052 33.844 12.5567 40.5768C14.2453 47.9047 19.0296 45.2845 20.9996 43.1923C18.523 48.2138 15.1834 48.336 13.8231 47.7691C6.84374 44.1076 5.56793 28.4591 5.80247 21.0925C6.22461 14.9029 8.24232 1.53451 13.8231 0.16966C16.5619 -0.500132 19.0039 0.890508 20.1296 2.98281C16.4711 0.890508 14.8045 3.50588 13.8231 5.00805Z" fill="url(#paint5_linear_59_204)"/>
<path d="M19.8486 6.66914L22.3815 7.97682L23.2258 5.75378" stroke="#FF4E01" stroke-width="1.5" stroke-linecap="round"/>
</g>
<defs>
<linearGradient id="paint0_linear_59_204" x1="5.93743" y1="23.8575" x2="1.13503" y2="18.634" gradientUnits="userSpaceOnUse">
<stop stop-color="#FE4D00"/>
<stop offset="1" stop-color="#872900"/>
</linearGradient>
<linearGradient id="paint1_linear_59_204" x1="22.7975" y1="21.7269" x2="45.9678" y2="21.6054" gradientUnits="userSpaceOnUse">
<stop stop-color="#FE4D00"/>
<stop offset="1" stop-color="#872900"/>
</linearGradient>
<linearGradient id="paint2_linear_59_204" x1="0.0600011" y1="16.2306" x2="48.9935" y2="17.2579" gradientUnits="userSpaceOnUse">
<stop stop-color="#FE8200"/>
<stop offset="0.5" stop-color="#FE4D00"/>
<stop offset="1" stop-color="#FE8200"/>
</linearGradient>
<linearGradient id="paint3_linear_59_204" x1="20.974" y1="5.85969" x2="15.6838" y2="1.16328" gradientUnits="userSpaceOnUse">
<stop stop-color="#FE4D00"/>
<stop offset="1" stop-color="#872900"/>
</linearGradient>
<linearGradient id="paint4_linear_59_204" x1="19.0039" y1="22.8595" x2="19.0653" y2="46.1998" gradientUnits="userSpaceOnUse">
<stop offset="0.53395" stop-color="#FE4D00"/>
<stop offset="1" stop-color="#872900"/>
</linearGradient>
<linearGradient id="paint5_linear_59_204" x1="13.3882" y1="7.6462e-07" x2="14.8357" y2="49.2815" gradientUnits="userSpaceOnUse">
<stop stop-color="#FE8200"/>
<stop offset="0.5" stop-color="#FE5101"/>
<stop offset="1" stop-color="#FE8200"/>
</linearGradient>
<clipPath id="clip0_59_204">
<rect width="48" height="48" fill="white"/>
</clipPath>
</defs>
</svg>
