<svg width="125" height="125" viewBox="0 0 125 125" fill="none" xmlns="http://www.w3.org/2000/svg">
<path d="M39.0624 24.7396C38.5494 24.7396 38.0414 24.8406 37.5675 25.0369C37.0936 25.2332 36.663 25.521 36.3002 25.8837C35.9375 26.2464 35.6498 26.677 35.4535 27.151C35.2571 27.6249 35.1561 28.1329 35.1561 28.6458C35.1561 29.1588 35.2571 29.6668 35.4535 30.1407C35.6498 30.6146 35.9375 31.0452 36.3002 31.408C36.663 31.7707 37.0936 32.0584 37.5675 32.2547C38.0414 32.451 38.5494 32.5521 39.0624 32.5521C40.0984 32.5521 41.0919 32.1405 41.8245 31.408C42.5571 30.6754 42.9686 29.6818 42.9686 28.6458C42.9686 27.6098 42.5571 26.6163 41.8245 25.8837C41.0919 25.1511 40.0984 24.7396 39.0624 24.7396ZM27.3436 28.6458C27.3443 26.4976 27.9354 24.3908 29.0525 22.5558C30.1696 20.7208 31.7695 19.2282 33.6776 18.241C35.5856 17.2539 37.7283 16.8103 39.8715 16.9586C42.0146 17.1069 44.0758 17.8415 45.8296 19.0821C47.5835 20.3226 48.9626 22.0215 49.8162 23.9929C50.6699 25.9642 50.9652 28.1324 50.6699 30.2602C50.3746 32.3881 49.5 34.3939 48.1418 36.0583C46.7836 37.7228 44.994 38.9818 42.9686 39.6979V60.0417C43.42 59.7083 43.8888 59.3993 44.3749 59.1146C49.3176 56.1354 55.6509 55.2656 61.0311 54.5313L61.9634 54.401C68.0103 53.5573 72.9113 52.724 76.4269 50.3542C79.0571 48.5729 81.3071 45.6146 81.8853 39.6458C79.292 38.6911 77.1196 36.8506 75.7517 34.4494C74.3839 32.0483 73.9085 29.241 74.4097 26.5234C74.9109 23.8058 76.3563 21.3528 78.4907 19.5975C80.6251 17.8423 83.3111 16.8978 86.0744 16.9308C88.8376 16.9639 91.5002 17.9724 93.592 19.7782C95.6838 21.5841 97.0701 24.071 97.5061 26.7998C97.9421 29.5287 97.3997 32.3238 95.9748 34.6915C94.5498 37.0592 92.334 38.8472 89.7186 39.7396C89.0624 47.9531 85.8749 53.3958 80.8019 56.8229C75.5259 60.3906 68.7082 61.3542 63.0415 62.1354L62.9113 62.1562C56.8176 63 51.9374 63.6771 48.4009 65.8021C46.7603 66.7917 45.4738 68.0729 44.5624 69.875C43.6249 71.7188 42.9686 74.3333 42.9686 78.125V85.3021C45.5764 86.2236 47.7744 88.0374 49.1741 90.4228C50.5738 92.8083 51.0851 95.6118 50.6176 98.3378C50.1501 101.064 48.734 103.537 46.6194 105.32C44.5049 107.102 41.8282 108.08 39.0624 108.08C36.2966 108.08 33.6198 107.102 31.5053 105.32C29.3908 103.537 27.9746 101.064 27.5071 98.3378C27.0396 95.6118 27.5509 92.8083 28.9506 90.4228C30.3504 88.0374 32.5484 86.2236 35.1561 85.3021V39.6979C32.8708 38.8899 30.8922 37.3931 29.493 35.4138C28.0938 33.4344 27.3429 31.0698 27.3436 28.6458ZM85.9374 24.7396C85.4244 24.7396 84.9164 24.8406 84.4425 25.0369C83.9686 25.2332 83.538 25.521 83.1752 25.8837C82.8125 26.2464 82.5248 26.677 82.3285 27.151C82.1321 27.6249 82.0311 28.1329 82.0311 28.6458C82.0311 29.1588 82.1321 29.6668 82.3285 30.1407C82.5248 30.6146 82.8125 31.0452 83.1752 31.408C83.538 31.7707 83.9686 32.0584 84.4425 32.2547C84.9164 32.451 85.4244 32.5521 85.9374 32.5521C86.9734 32.5521 87.9669 32.1405 88.6995 31.408C89.4321 30.6754 89.8436 29.6818 89.8436 28.6458C89.8436 27.6098 89.4321 26.6163 88.6995 25.8837C87.9669 25.1511 86.9734 24.7396 85.9374 24.7396ZM39.0624 92.4479C38.0264 92.4479 37.0328 92.8595 36.3002 93.592C35.5677 94.3246 35.1561 95.3182 35.1561 96.3542C35.1561 97.3902 35.5677 98.3837 36.3002 99.1163C37.0328 99.8489 38.0264 100.26 39.0624 100.26C40.0984 100.26 41.0919 99.8489 41.8245 99.1163C42.5571 98.3837 42.9686 97.3902 42.9686 96.3542C42.9686 95.3182 42.5571 94.3246 41.8245 93.592C41.0919 92.8595 40.0984 92.4479 39.0624 92.4479Z" fill="url(#paint0_linear_59_119)"/>
<defs>
<linearGradient id="paint0_linear_59_119" x1="62.4956" y1="16.93" x2="62.4956" y2="108.08" gradientUnits="userSpaceOnUse">
<stop stop-color="#FE8200"/>
<stop offset="1" stop-color="#FE4D00"/>
</linearGradient>
</defs>
</svg>
