<svg width="88" height="88" viewBox="0 0 88 88" fill="none" xmlns="http://www.w3.org/2000/svg">
<path d="M44.0004 73.1845H84.8576M44.0004 73.1845C44.0004 74.3344 43.7739 75.473 43.3339 76.5353C42.8939 77.5976 42.2489 78.5629 41.4358 79.376C40.6228 80.189 39.6575 80.834 38.5952 81.274C37.5329 81.7141 36.3943 81.9405 35.2444 81.9405C34.0946 81.9405 32.956 81.7141 31.8936 81.274C30.8313 80.834 29.8661 80.189 29.053 79.376C28.2399 78.5629 27.595 77.5976 27.1549 76.5353C26.7149 75.473 26.4884 74.3344 26.4884 73.1845C26.4884 72.0347 26.7149 70.8961 27.1549 69.8338C27.595 68.7714 28.2399 67.8062 29.053 66.9931C29.8661 66.18 30.8313 65.5351 31.8936 65.095C32.956 64.655 34.0946 64.4285 35.2444 64.4285C36.3943 64.4285 37.5329 64.655 38.5952 65.095C39.6575 65.5351 40.6228 66.18 41.4358 66.9931C42.2489 67.8062 42.8939 68.7714 43.3339 69.8338C43.7739 70.8961 44.0004 72.0347 44.0004 73.1845ZM84.8576 73.1845L73.185 61.512M84.8576 73.1845L73.185 84.8571M20.6553 11.8988C20.6553 14.2211 21.5778 16.4482 23.2198 18.0902C24.8619 19.7323 27.089 20.6548 29.4113 20.6548C31.7335 20.6548 33.9606 19.7323 35.6027 18.0902C37.2448 16.4482 38.1673 14.2211 38.1673 11.8988C38.1673 9.57659 37.2448 7.34946 35.6027 5.7074C33.9606 4.06533 31.7335 3.14282 29.4113 3.14282C27.089 3.14282 24.8619 4.06533 23.2198 5.7074C21.5778 7.34946 20.6553 9.57659 20.6553 11.8988ZM44.0004 41.0834C44.0004 43.4056 44.9229 45.6328 46.565 47.2748C48.2071 48.9169 50.4342 49.8394 52.7564 49.8394C55.0786 49.8394 57.3058 48.9169 58.9478 47.2748C60.5899 45.6328 61.5124 43.4056 61.5124 41.0834C61.5124 38.7612 60.5899 36.534 58.9478 34.892C57.3058 33.2499 55.0786 32.3274 52.7564 32.3274C50.4342 32.3274 48.2071 33.2499 46.565 34.892C44.9229 36.534 44.0004 38.7612 44.0004 41.0834Z" stroke="url(#paint0_linear_59_125)" stroke-width="4" stroke-linecap="round" stroke-linejoin="round"/>
<path d="M44.0002 41.0834H19.1968C14.9949 41.1665 10.9932 42.8941 8.05098 45.8951C5.10877 48.8961 3.46071 52.9313 3.46071 57.134C3.46071 61.3366 5.10877 65.3718 8.05098 68.3728C10.9932 71.3738 14.9949 73.1014 19.1968 73.1845H26.4882M61.5122 41.0834H70.2682C74.1383 41.0834 77.8499 39.546 80.5865 36.8094C83.3231 34.0728 84.8605 30.3612 84.8605 26.4911C84.8605 22.621 83.3231 18.9094 80.5865 16.1728C77.8499 13.4362 74.1383 11.8988 70.2682 11.8988H38.1545M20.6551 11.8988H3.14307" stroke="url(#paint1_linear_59_125)" stroke-width="4" stroke-linecap="round" stroke-linejoin="round"/>
<defs>
<linearGradient id="paint0_linear_59_125" x1="52.7564" y1="3.14282" x2="52.7564" y2="84.8571" gradientUnits="userSpaceOnUse">
<stop stop-color="#FE8200"/>
<stop offset="1" stop-color="#FE4D00"/>
</linearGradient>
<linearGradient id="paint1_linear_59_125" x1="44.0018" y1="11.8988" x2="44.0018" y2="73.1845" gradientUnits="userSpaceOnUse">
<stop stop-color="#FE8200"/>
<stop offset="1" stop-color="#FE4D00"/>
</linearGradient>
</defs>
</svg>
