<svg width="93" height="94" viewBox="0 0 93 94" fill="none" xmlns="http://www.w3.org/2000/svg">
<path d="M9.96429 0.625C4.46317 0.625 0 5.07617 0 10.5625V83.4375C0 88.9238 4.46317 93.375 9.96429 93.375H83.0357C88.5368 93.375 93 88.9238 93 83.4375V10.5625C93 5.07617 88.5368 0.625 83.0357 0.625H9.96429ZM46.0979 13.8754C46.2317 13.8743 46.3655 13.8761 46.4992 13.881C48.1306 13.8856 49.782 14.1661 51.2685 14.8547C57.4103 18.3171 63.4951 21.8826 69.6151 25.3847C73.4274 27.1664 76.3895 30.7834 76.7979 35.0439C76.8622 42.0809 76.8072 49.1204 76.8255 56.1582C77.1844 60.3423 75.5247 64.7086 72.0287 67.1911C65.9509 70.7653 59.8115 74.2376 53.7096 77.7725C50.2555 80.1747 45.6333 80.9214 41.7288 79.1457C35.5864 75.6838 29.5026 72.1158 23.3831 68.613C19.5709 66.8305 16.6086 63.2145 16.2005 58.9536C16.1361 51.9166 16.1907 44.8769 16.1725 37.8389C15.8413 33.8695 17.2893 29.7591 20.4405 27.2047C25.2586 24.1479 30.3209 21.4664 35.2366 18.5603C38.738 16.7523 41.9799 13.909 46.0977 13.8754M42.6559 31.6041V62.3942H50.3435V31.6041H42.6559ZM52.3297 38.3057V62.3942H60.0134V38.3059L52.3297 38.3057ZM32.9834 50.8721V62.3942H40.6694V50.8721H32.9834Z" fill="url(#paint0_linear_59_104)"/>
<defs>
<linearGradient id="paint0_linear_59_104" x1="46.5" y1="0.625" x2="46.5" y2="93.375" gradientUnits="userSpaceOnUse">
<stop stop-color="#FE8200"/>
<stop offset="1" stop-color="#FE4D00"/>
</linearGradient>
</defs>
</svg>
